# xmcd
#
# Track frame offsets:
#	150
#	23371
#	49189
#	74009
#	97349
#	122620
#	147254
#	172708
#	195488
#	218312
#	247419
#
# Disc length: 3629 seconds
# Revision: 0
# Processed by: cddbd v1.5.2PL0 Copyright (c) Steve Scherf et al.
# Submitted via: dBpowerAMP V12.0
#
DISCID=990e2b0b
DTITLE=Glenn Jones - Finesse
DYEAR=1984
DGENRE=Funk
TTITLE0=Finesse
TTITLE1=You're The Only One I Love
TTITLE2=Show Me
TTITLE3=It Hurts Too Much
TTITLE4=Meet Me Halfway There
TTITLE5=Bring Back Your Love
TTITLE6=Everlasting Love
TTITLE7=On The Floor
TTITLE8=Finesse (12'' Remix Version)
TTITLE9=I Am Somebody (12'')
TTITLE10=I Am Somebody (Instrumental)
EXTD=
EXTT0=
EXTT1=
EXTT2=
EXTT3=
EXTT4=
EXTT5=
EXTT6=
EXTT7=
EXTT8=
EXTT9=
EXTT10=
PLAYORDER=
